<?xml version="1.0" encoding="UTF-8"?>
<svg width="24" height="24" viewBox="0 0 24 24" fill="none" xmlns="http://www.w3.org/2000/svg">
    <path d="M12 0C5.37 0 0 5.37 0 12C0 17.31 3.435 21.795 8.205 23.385C8.805 23.49 9.025 23.16 9.025 22.875C9.025 22.62 9.015 22.095 9.015 21.525C6 22.14 5.25 20.895 5.025 20.28C4.95 20.085 4.35 19.05 3.825 18.875C3.35 18.725 2.85 18.275 3.81 18.26C4.725 18.245 5.475 19.11 5.625 19.35C6.6 20.85 7.95 20.4 9.05 20.175C9.1 19.38 9.35 18.815 9.625 18.545C7.025 18.275 4.35 17.31 4.35 12.33C4.35 10.92 4.875 9.735 5.625 8.82C5.55 8.565 5.175 7.23 5.775 5.43C5.775 5.43 6.9 5.13 9.025 6.48C9.975 6.75 10.95 6.75 11.925 6.48C14.05 5.13 15.175 5.43 15.175 5.43C15.775 7.23 15.4 8.565 15.325 8.82C16.075 9.735 16.6 10.905 16.6 12.33C16.6 17.31 13.925 18.275 11.325 18.545C11.775 18.88 12.15 19.59 12.15 20.67C12.15 22.245 12.135 23.52 12.135 22.875C12.135 22.59 12.345 22.26 12.945 22.155C17.715 21.795 21.15 17.31 21.15 12C21.15 5.37 16.63 0 12 0Z" fill="#333333"/>
</svg> 