<?xml version="1.0" encoding="UTF-8"?>
<svg width="24" height="24" viewBox="0 0 24 24" fill="none" xmlns="http://www.w3.org/2000/svg">
    <path d="M12.545 10.239V14.399H19.643C19.417 15.539 18.545 17.239 16.545 18.399C15.545 19.099 14.045 19.799 12.545 19.799C9.545 19.799 7.045 17.399 7.045 14.299C7.045 11.199 9.545 8.799 12.545 8.799C14.045 8.799 15.545 9.499 16.545 10.199L19.545 7.199C17.545 5.399 15.045 4.199 12.545 4.199C7.545 4.199 3.545 8.199 3.545 13.199C3.545 18.199 7.545 22.199 12.545 22.199C17.545 22.199 21.545 18.199 21.545 13.199C21.545 12.199 21.545 11.199 21.345 10.239H12.545Z" fill="#4285F4"/>
</svg> 