<?xml version="1.0" encoding="UTF-8"?>
<svg width="200" height="200" viewBox="0 0 200 200" fill="none" xmlns="http://www.w3.org/2000/svg">
    <rect width="200" height="200" fill="#E5E5E5"/>
    <path d="M100 80C88.9543 80 80 88.9543 80 100C80 111.046 88.9543 120 100 120C111.046 120 120 111.046 120 100C120 88.9543 111.046 80 100 80ZM100 115C91.7157 115 85 108.284 85 100C85 91.7157 91.7157 85 100 85C108.284 85 115 91.7157 115 100C115 108.284 108.284 115 100 115Z" fill="#9E9E9E"/>
    <path d="M100 90C94.4772 90 90 94.4772 90 100C90 105.523 94.4772 110 100 110C105.523 110 110 105.523 110 100C110 94.4772 105.523 90 100 90ZM100 105C97.2386 105 95 102.761 95 100C95 97.2386 97.2386 95 100 95C102.761 95 105 97.2386 105 100C105 102.761 102.761 105 100 105Z" fill="#9E9E9E"/>
</svg> 