<?xml version="1.0" encoding="UTF-8"?>
<svg width="200" height="200" viewBox="0 0 200 200" fill="none" xmlns="http://www.w3.org/2000/svg">
    <rect width="200" height="200" fill="#E5E5E5"/>
    <path d="M100 50C77.9086 50 60 67.9086 60 90C60 112.091 77.9086 130 100 130C122.091 130 140 112.091 140 90C140 67.9086 122.091 50 100 50ZM100 125C80.1177 125 65 109.882 65 90C65 70.1177 80.1177 55 100 55C119.882 55 135 70.1177 135 90C135 109.882 119.882 125 100 125Z" fill="#9E9E9E"/>
    <path d="M100 70C88.9543 70 80 78.9543 80 90C80 101.046 88.9543 110 100 110C111.046 110 120 101.046 120 90C120 78.9543 111.046 70 100 70ZM100 105C91.7157 105 85 98.2843 85 90C85 81.7157 91.7157 75 100 75C108.284 75 115 81.7157 115 90C115 98.2843 108.284 105 100 105Z" fill="#9E9E9E"/>
</svg> 